<svg xmlns="http://www.w3.org/2000/svg" fill="currentColor" height="20" viewBox="0 -960 960 960" width="20"><path d="m337-295.692 143-143 143 143L664.308-337l-143-143 143-143L623-664.308l-143 143-143-143L295.692-623l143 143-143 143L337-295.692ZM480.134-104q-77.313 0-145.89-29.359-68.577-29.36-120.025-80.762-51.447-51.402-80.833-119.917Q104-402.554 104-479.866q0-78.569 29.418-146.871 29.419-68.303 80.922-119.917 51.503-51.614 119.916-80.48Q402.67-856 479.866-856q78.559 0 146.853 28.839 68.294 28.84 119.922 80.422 51.627 51.582 80.493 119.841Q856-558.639 856-480.05q0 77.589-28.839 145.826-28.84 68.237-80.408 119.786-51.569 51.548-119.81 80.993Q558.702-104 480.134-104ZM480-162q132.513 0 225.256-92.744Q798-347.487 798-480t-92.744-225.256Q612.513-798 480-798t-225.256 92.744Q162-612.513 162-480t92.744 225.256Q347.487-162 480-162Zm0-318Z"/></svg>