<svg xmlns="http://www.w3.org/2000/svg" fill="currentColor" height="20" viewBox="0 -960 960 960" width="20"><path d="M479.802-108.307q-62.394 0-105.444-43.19-43.051-43.19-43.051-105.503v-440.615q-24.846-5-40.73-24.168-15.885-19.167-15.885-44.572v-45.971q0-28.767 20.45-49.067 20.449-20.3 49.165-20.3h271.386q28.716 0 49.165 20.487 20.45 20.486 20.45 49.253v45.971q0 25.405-16.131 44.386t-40.484 23.981l-.77 451.384q-3.846 58.797-45.744 98.361-41.898 39.563-102.377 39.563ZM357.307-754.615h245.386q10.769 0 17.692-6.924 6.923-6.923 6.923-17.692v-19.846q0-10.769-6.923-17.692t-17.692-6.923H357.307q-10.769 0-17.692 6.923t-6.923 17.692v19.846q0 10.769 6.923 17.692 6.923 6.924 17.692 6.924ZM480-166.308q48.231 0 77.961-36.461 29.731-36.462 21.347-87.231H487v-58h83.692v-88H487v-58h83.692v-88H487v-58h83.692v-56.615H389.308V-257q0 37.789 26.452 64.241 26.452 26.451 64.24 26.451ZM332.692-754.615v-69.077 69.077Z"/></svg>