<svg xmlns="http://www.w3.org/2000/svg" fill="currentColor" height="20" viewBox="0 -960 960 960" width="20"><path d="M568.001-330.001h63.998v-78h78v-63.998h-78v-78h-63.998v78h-78v63.998h78v78Zm-391.692 150q-31.958 0-54.133-22.175-22.175-22.175-22.175-54.133v-431.997q0-31.957 22.175-54.132 22.175-22.175 54.133-22.175h235.077L480-695.999h303.691q31.958 0 54.133 22.175 22.175 22.175 22.175 54.133v363.382q0 31.958-22.175 54.133-22.175 22.175-54.133 22.175H176.309ZM164-688.306v431.997q0 5.385 3.462 8.847 3.462 3.462 8.847 3.462h607.382q5.385 0 8.847-3.462 3.462-3.462 3.462-8.847v-363.382q0-5.385-3.462-8.847-3.462-3.462-8.847-3.462H453.462l-68.614-68.614H176.309q-5.385 0-8.847 3.462-3.462 3.461-3.462 8.846Zm0 0v-12.308V-244-688.306Z"/></svg>